<?xml version="1.0" encoding="UTF-8" standalone="no"?>
<!-- Created with Inkscape (http://www.inkscape.org/) -->
<svg
   xmlns:dc="http://purl.org/dc/elements/1.1/"
   xmlns:cc="http://creativecommons.org/ns#"
   xmlns:rdf="http://www.w3.org/1999/02/22-rdf-syntax-ns#"
   xmlns:svg="http://www.w3.org/2000/svg"
   xmlns="http://www.w3.org/2000/svg"
   xmlns:xlink="http://www.w3.org/1999/xlink"
   xmlns:sodipodi="http://sodipodi.sourceforge.net/DTD/sodipodi-0.dtd"
   xmlns:inkscape="http://www.inkscape.org/namespaces/inkscape"
   width="16px"
   height="16px"
   id="svg2394"
   sodipodi:version="0.32"
   inkscape:version="0.46"
   sodipodi:docname="extras.svg"
   inkscape:output_extension="org.inkscape.output.svg.inkscape"
   inkscape:export-filename="/home/besigg/workspace/TinyOS Core Plugin/icons/application.png"
   inkscape:export-xdpi="90"
   inkscape:export-ydpi="90">
  <defs
     id="defs2396">
    <linearGradient
       id="linearGradient3655">
      <stop
         style="stop-color:#52befa;stop-opacity:1;"
         offset="0"
         id="stop3657" />
      <stop
         style="stop-color:#000000;stop-opacity:0;"
         offset="1"
         id="stop3659" />
    </linearGradient>
    <linearGradient
       id="linearGradient3645">
      <stop
         style="stop-color:#bfcaff;stop-opacity:1;"
         offset="0"
         id="stop3647" />
      <stop
         style="stop-color:#ffffff;stop-opacity:1;"
         offset="1"
         id="stop3649" />
    </linearGradient>
    <inkscape:perspective
       id="perspective3601"
       inkscape:persp3d-origin="6.4716122 : 8.0379077 : 1"
       inkscape:vp_z="35.337033 : 10.318428 : 1"
       inkscape:vp_y="2.239551e-14 : 302.5703 : 0"
       inkscape:vp_x="-22.773942 : 15.414778 : 1"
       sodipodi:type="inkscape:persp3d" />
    <linearGradient
       id="linearGradient3146">
      <stop
         style="stop-color:#ff0002;stop-opacity:1;"
         offset="0"
         id="stop3148" />
      <stop
         style="stop-color:#9e0009;stop-opacity:1;"
         offset="1"
         id="stop3150" />
    </linearGradient>
    <linearGradient
       id="linearGradient3176">
      <stop
         style="stop-color:#00ff00;stop-opacity:1;"
         offset="0"
         id="stop3178" />
      <stop
         style="stop-color:#00ff00;stop-opacity:0;"
         offset="1"
         id="stop3180" />
    </linearGradient>
    <inkscape:perspective
       sodipodi:type="inkscape:persp3d"
       inkscape:vp_x="-34.595745 : 18.771667 : 1"
       inkscape:vp_y="5.7937846e-14 : 680.00243 : 0"
       inkscape:vp_z="44.293892 : 14.016894 : 1"
       inkscape:persp3d-origin="6.4447702 : 5.9664116 : 1"
       id="perspective2402" />
    <linearGradient
       inkscape:collect="always"
       xlink:href="#linearGradient3176"
       id="linearGradient3184"
       x1="4.1353889"
       y1="12.518219"
       x2="13.830198"
       y2="10.886881"
       gradientUnits="userSpaceOnUse" />
    <filter
       inkscape:collect="always"
       id="filter3420"
       x="-0.11995085"
       width="1.2399017"
       y="-0.12004924"
       height="1.2400985">
      <feGaussianBlur
         inkscape:collect="always"
         stdDeviation="0.46315718"
         id="feGaussianBlur3422" />
    </filter>
    <inkscape:perspective
       id="perspective3542"
       inkscape:persp3d-origin="372.04724 : 350.78739 : 1"
       inkscape:vp_z="744.09448 : 526.18109 : 1"
       inkscape:vp_y="0 : 1000 : 0"
       inkscape:vp_x="0 : 526.18109 : 1"
       sodipodi:type="inkscape:persp3d" />
    <inkscape:perspective
       id="perspective3670"
       inkscape:persp3d-origin="372.04724 : 350.78739 : 1"
       inkscape:vp_z="744.09448 : 526.18109 : 1"
       inkscape:vp_y="0 : 1000 : 0"
       inkscape:vp_x="0 : 526.18109 : 1"
       sodipodi:type="inkscape:persp3d" />
    <inkscape:perspective
       id="perspective3683"
       inkscape:persp3d-origin="372.04724 : 350.78739 : 1"
       inkscape:vp_z="744.09448 : 526.18109 : 1"
       inkscape:vp_y="0 : 1000 : 0"
       inkscape:vp_x="0 : 526.18109 : 1"
       sodipodi:type="inkscape:persp3d" />
    <inkscape:perspective
       id="perspective3750"
       inkscape:persp3d-origin="372.04724 : 350.78739 : 1"
       inkscape:vp_z="744.09448 : 526.18109 : 1"
       inkscape:vp_y="0 : 1000 : 0"
       inkscape:vp_x="0 : 526.18109 : 1"
       sodipodi:type="inkscape:persp3d" />
  </defs>
  <sodipodi:namedview
     id="base"
     pagecolor="#ffffff"
     bordercolor="#666666"
     borderopacity="1.0"
     inkscape:pageopacity="0.0"
     inkscape:pageshadow="2"
     inkscape:zoom="48.625"
     inkscape:cx="8"
     inkscape:cy="8.8226221"
     inkscape:current-layer="g3582"
     showgrid="true"
     inkscape:grid-bbox="true"
     inkscape:document-units="px"
     inkscape:window-width="1600"
     inkscape:window-height="1137"
     inkscape:window-x="-4"
     inkscape:window-y="-4"
     inkscape:snap-global="false">
    <inkscape:grid
       type="xygrid"
       id="grid3639" />
  </sodipodi:namedview>
  <metadata
     id="metadata2399">
    <rdf:RDF>
      <cc:Work
         rdf:about="">
        <dc:format>image/svg+xml</dc:format>
        <dc:type
           rdf:resource="http://purl.org/dc/dcmitype/StillImage" />
      </cc:Work>
    </rdf:RDF>
  </metadata>
  <g
     id="layer1"
     inkscape:label="Layer 1"
     inkscape:groupmode="layer">
    <g
       id="g3582"
       transform="matrix(0.3762376,-0.1329093,0,1.2338352,2.9940177,1.8306765)">
      <path
         style="fill:#949494;fill-opacity:1;stroke:#2e2e2e;stroke-width:1.19838047000000003;stroke-linecap:round;stroke-linejoin:miter;stroke-miterlimit:4;stroke-dasharray:none;stroke-dashoffset:0;stroke-opacity:1"
         d="M 13.179222,3.5486869 C 12.128472,3.3139894 10.073935,3.9591692 8.4504068,4.9845149 C 7.8909388,4.9047223 7.3951428,4.8581856 6.8463238,4.8158376 C 5.0766811,3.4207411 2.9213457,2.3295077 1.8729783,2.3505987 C 0.83828142,2.3714147 1.3672002,3.480762 2.8937901,4.8539728 C 2.3482191,4.918406 1.8996626,5.0127974 1.4692212,5.131707 C -2.5476509,4.2674134 -6.0082345,3.7721625 -6.4119968,4.048535 C -6.8102736,4.3211528 -4.0322518,5.2313553 -0.18816404,6.1429811 C -0.28545314,6.3690337 -0.27715874,6.5864181 -0.14784734,6.8291779 C -3.8743895,7.0265716 -6.4203627,7.4271383 -5.9318486,7.7855286 C -5.4456754,8.1422008 -2.0769485,8.3351457 1.7430341,8.2266846 C 2.1297957,8.4021878 2.4974621,8.5619449 2.9829967,8.7203462 C 1.6719174,9.7839845 1.3436836,10.767619 2.3809677,10.996678 C 3.4204863,11.22623 5.3887844,10.592042 6.9732158,9.5845214 C 7.6909408,9.6790381 8.3625988,9.7453761 9.0539668,9.778405 C 11.007941,11.124041 13.30869,12.157555 14.31114,12.117426 C 15.321077,12.076997 14.661035,10.955304 12.920775,9.5856837 C 13.305654,9.5186913 13.653883,9.457358 13.965097,9.3584551 C 18.027558,10.226399 21.554413,10.718405 21.953429,10.438465 C 22.355097,10.156663 19.444633,9.2038935 15.418948,8.2746315 C 15.452951,8.1253422 15.407474,7.9812563 15.346548,7.8250576 C 19.324612,7.7062426 22.150936,7.3386874 21.703636,6.9696249 C 21.256659,6.600829 17.719124,6.3646378 13.669895,6.421226 C 13.306795,6.243841 12.892921,6.0895574 12.429932,5.9275644 C 13.874018,4.8346663 14.244396,3.7866061 13.179222,3.5486869 z"
         id="path3798" />
      <path
         sodipodi:type="arc"
         style="opacity:1;fill:none;fill-opacity:1;stroke:#2e2e2e;stroke-width:1;stroke-linecap:round;stroke-linejoin:miter;stroke-miterlimit:4;stroke-dasharray:none;stroke-dashoffset:0;stroke-opacity:1"
         id="path3863"
         sodipodi:cx="7.6092544"
         sodipodi:cy="8.5141392"
         sodipodi:rx="0.76092547"
         sodipodi:ry="0.82262212"
         d="M 8.3701798,8.5141392 A 0.76092547,0.82262212 0 1 1 6.8483289,8.5141392 A 0.76092547,0.82262212 0 1 1 8.3701798,8.5141392 z"
         transform="matrix(2.968671,0.6630878,-1.0178249,0.7087674,-6.334264,-3.8375002)" />
      <path
         style="fill:#c99109;fill-opacity:1;stroke:#6f4e0f;stroke-width:0.82164716999999998;stroke-linecap:round;stroke-linejoin:miter;stroke-miterlimit:4;stroke-dasharray:none;stroke-dashoffset:0;stroke-opacity:1"
         d="M 31.20826,3.3377964 C 30.703834,3.1058599 28.539228,3.1917172 26.278555,3.5113999 C 25.961767,3.409973 25.655233,3.3318992 25.306132,3.2499532 C 25.523624,2.3709011 25.139734,1.597241 24.364037,1.4905273 C 23.598455,1.385205 22.794535,1.9861766 22.425782,2.827408 C 21.965059,2.7979889 21.542061,2.7940335 21.105913,2.8040781 C 19.142425,1.9334998 17.184747,1.3052972 16.599721,1.3952425 C 16.02264,1.483966 17.047094,2.2386929 18.835932,3.1131073 C 18.52479,3.2126786 18.298753,3.3198006 18.132578,3.4528261 C 15.244622,3.1333058 12.988005,3.0448126 12.956492,3.2744191 C 12.92513,3.5029249 15.139441,3.9731934 17.999617,4.3465881 C 18.090181,4.4754938 18.183831,4.594576 18.363609,4.7261526 C 16.286546,5.099417 15.000977,5.5433013 15.501747,5.7709804 C 16.003595,5.9991497 18.094516,5.9090365 20.308075,5.5936977 C 20.722846,5.719982 21.134593,5.8273583 21.596052,5.9206633 C 21.563778,6.7961274 22.11374,7.5578217 22.876765,7.6501097 C 23.64549,7.7430868 24.36838,7.1214483 24.579792,6.2581216 C 24.9278,6.2683545 25.243437,6.277261 25.572576,6.2636826 C 27.564923,7.1411318 29.573674,7.7751463 30.159102,7.6829285 C 30.748419,7.5900971 29.67424,6.7997927 27.773756,5.8964928 C 27.957508,5.8273578 28.078608,5.7518936 28.201533,5.6687872 C 31.186332,6.0547689 33.609133,6.1906814 33.681645,5.9604612 C 33.754106,5.7304081 31.46467,5.2201709 28.495155,4.7958476 C 28.423599,4.6686632 28.29091,4.5470974 28.131161,4.4162829 C 30.33501,4.0435708 31.719612,3.5729169 31.20826,3.3377964 z"
         id="path3865" />
      <path
         sodipodi:type="arc"
         style="opacity:1;fill:#c99109;fill-opacity:1;stroke:#6f4e0f;stroke-width:1;stroke-linecap:round;stroke-linejoin:miter;stroke-miterlimit:4;stroke-dasharray:none;stroke-dashoffset:0;stroke-opacity:1"
         id="path3867"
         sodipodi:cx="7.6092544"
         sodipodi:cy="8.5141392"
         sodipodi:rx="0.76092547"
         sodipodi:ry="0.82262212"
         d="M 8.3701798,8.5141392 A 0.76092547,0.82262212 0 1 1 6.8483289,8.5141392 A 0.76092547,0.82262212 0 1 1 8.3701798,8.5141392 z"
         transform="matrix(1.4251496,0.6552874,-1.4876541,0.2326367,25.071681,-2.4485397)" />
    </g>
  </g>
</svg>
